<svg width="332" height="27" viewBox="0 0 332 27" fill="none" xmlns="http://www.w3.org/2000/svg">
<path d="M76.6935 0.866394L87.3512 7.01966V19.3262L76.6935 25.4795L66.0357 19.3262V7.01966L76.6935 0.866394Z" fill="#065E7C"/>
<path d="M101.95 20.8664H98.953V8.69361C98.953 7.84627 99.1184 7.13326 99.449 6.55459C99.7866 5.96902 100.258 5.52813 100.865 5.23191C101.478 4.92879 102.205 4.77723 103.045 4.77723C103.321 4.77723 103.586 4.7979 103.841 4.83924C104.096 4.87368 104.344 4.91846 104.585 4.97357L104.554 7.21593C104.423 7.18148 104.285 7.15737 104.14 7.14359C103.996 7.12981 103.827 7.12292 103.634 7.12292C103.276 7.12292 102.969 7.18493 102.714 7.30893C102.466 7.42604 102.277 7.60171 102.146 7.83593C102.015 8.07016 101.95 8.35605 101.95 8.69361V20.8664ZM104.182 9.68562V11.7936H97.2893V9.68562H104.182ZM105.267 15.3897V15.1727C105.267 14.3529 105.384 13.5985 105.618 12.9096C105.852 12.2139 106.193 11.6111 106.641 11.1013C107.089 10.5915 107.64 10.1954 108.294 9.91295C108.949 9.62362 109.7 9.47895 110.547 9.47895C111.394 9.47895 112.149 9.62362 112.81 9.91295C113.471 10.1954 114.026 10.5915 114.474 11.1013C114.929 11.6111 115.273 12.2139 115.507 12.9096C115.741 13.5985 115.859 14.3529 115.859 15.1727V15.3897C115.859 16.2026 115.741 16.9569 115.507 17.6527C115.273 18.3416 114.929 18.9444 114.474 19.461C114.026 19.9708 113.475 20.3669 112.82 20.6494C112.166 20.9318 111.415 21.0731 110.568 21.0731C109.72 21.0731 108.966 20.9318 108.305 20.6494C107.65 20.3669 107.096 19.9708 106.641 19.461C106.193 18.9444 105.852 18.3416 105.618 17.6527C105.384 16.9569 105.267 16.2026 105.267 15.3897ZM108.243 15.1727V15.3897C108.243 15.8581 108.284 16.2956 108.367 16.702C108.449 17.1085 108.58 17.4667 108.759 17.7767C108.945 18.0798 109.187 18.3175 109.483 18.4897C109.779 18.6619 110.141 18.748 110.568 18.748C110.981 18.748 111.336 18.6619 111.632 18.4897C111.928 18.3175 112.166 18.0798 112.345 17.7767C112.524 17.4667 112.655 17.1085 112.738 16.702C112.827 16.2956 112.872 15.8581 112.872 15.3897V15.1727C112.872 14.718 112.827 14.2909 112.738 13.8913C112.655 13.4849 112.521 13.1267 112.335 12.8166C112.156 12.4998 111.918 12.2518 111.622 12.0726C111.326 11.8935 110.967 11.804 110.547 11.804C110.127 11.804 109.769 11.8935 109.472 12.0726C109.183 12.2518 108.945 12.4998 108.759 12.8166C108.58 13.1267 108.449 13.4849 108.367 13.8913C108.284 14.2909 108.243 14.718 108.243 15.1727ZM117.212 15.3897V15.1727C117.212 14.3529 117.329 13.5985 117.564 12.9096C117.798 12.2139 118.139 11.6111 118.587 11.1013C119.034 10.5915 119.585 10.1954 120.24 9.91295C120.894 9.62362 121.645 9.47895 122.493 9.47895C123.34 9.47895 124.094 9.62362 124.756 9.91295C125.417 10.1954 125.972 10.5915 126.419 11.1013C126.874 11.6111 127.218 12.2139 127.453 12.9096C127.687 13.5985 127.804 14.3529 127.804 15.1727V15.3897C127.804 16.2026 127.687 16.9569 127.453 17.6527C127.218 18.3416 126.874 18.9444 126.419 19.461C125.972 19.9708 125.42 20.3669 124.766 20.6494C124.111 20.9318 123.361 21.0731 122.513 21.0731C121.666 21.0731 120.912 20.9318 120.25 20.6494C119.596 20.3669 119.041 19.9708 118.587 19.461C118.139 18.9444 117.798 18.3416 117.564 17.6527C117.329 16.9569 117.212 16.2026 117.212 15.3897ZM120.188 15.1727V15.3897C120.188 15.8581 120.23 16.2956 120.312 16.702C120.395 17.1085 120.526 17.4667 120.705 17.7767C120.891 18.0798 121.132 18.3175 121.428 18.4897C121.724 18.6619 122.086 18.748 122.513 18.748C122.927 18.748 123.281 18.6619 123.578 18.4897C123.874 18.3175 124.111 18.0798 124.291 17.7767C124.47 17.4667 124.601 17.1085 124.683 16.702C124.773 16.2956 124.818 15.8581 124.818 15.3897V15.1727C124.818 14.718 124.773 14.2909 124.683 13.8913C124.601 13.4849 124.466 13.1267 124.28 12.8166C124.101 12.4998 123.863 12.2518 123.567 12.0726C123.271 11.8935 122.913 11.804 122.493 11.804C122.072 11.804 121.714 11.8935 121.418 12.0726C121.129 12.2518 120.891 12.4998 120.705 12.8166C120.526 13.1267 120.395 13.4849 120.312 13.8913C120.23 14.2909 120.188 14.718 120.188 15.1727ZM136.236 18.4277V4.99424H139.233V20.8664H136.536L136.236 18.4277ZM129.168 15.4103V15.1933C129.168 14.3391 129.264 13.5641 129.457 12.8683C129.65 12.1656 129.933 11.5629 130.305 11.06C130.677 10.5571 131.135 10.1678 131.679 9.89229C132.223 9.61673 132.843 9.47895 133.539 9.47895C134.193 9.47895 134.765 9.61673 135.254 9.89229C135.75 10.1678 136.171 10.5605 136.515 11.0703C136.866 11.5732 137.149 12.1691 137.362 12.858C137.576 13.54 137.731 14.2874 137.827 15.1003V15.5757C137.731 16.3541 137.576 17.0775 137.362 17.7457C137.149 18.4139 136.866 18.9995 136.515 19.5024C136.171 19.9984 135.75 20.3842 135.254 20.6597C134.758 20.9353 134.18 21.0731 133.518 21.0731C132.823 21.0731 132.203 20.9318 131.658 20.6494C131.121 20.3669 130.666 19.9708 130.294 19.461C129.929 18.9513 129.65 18.3519 129.457 17.663C129.264 16.9741 129.168 16.2232 129.168 15.4103ZM132.144 15.1933V15.4103C132.144 15.8719 132.178 16.3025 132.247 16.702C132.323 17.1016 132.444 17.4564 132.609 17.7664C132.781 18.0695 133.002 18.3071 133.27 18.4794C133.546 18.6447 133.88 18.7274 134.273 18.7274C134.782 18.7274 135.203 18.6137 135.533 18.3864C135.864 18.1521 136.115 17.8318 136.288 17.4254C136.467 17.0189 136.57 16.5505 136.598 16.02V14.6663C136.577 14.2323 136.515 13.8431 136.412 13.4987C136.315 13.1473 136.171 12.8476 135.978 12.5996C135.792 12.3516 135.557 12.1588 135.275 12.021C134.999 11.8832 134.672 11.8143 134.293 11.8143C133.908 11.8143 133.577 11.9039 133.301 12.083C133.026 12.2552 132.802 12.4929 132.63 12.796C132.464 13.0991 132.34 13.4573 132.258 13.8707C132.182 14.2771 132.144 14.718 132.144 15.1933ZM151.974 21.0731C151.106 21.0731 150.327 20.9353 149.639 20.6597C148.95 20.3773 148.364 19.9881 147.882 19.492C147.406 18.996 147.041 18.4208 146.786 17.7664C146.532 17.105 146.404 16.4023 146.404 15.6583V15.245C146.404 14.3977 146.525 13.6227 146.766 12.92C147.007 12.2173 147.351 11.6076 147.799 11.091C148.254 10.5743 148.805 10.1782 149.453 9.90262C150.1 9.62017 150.83 9.47895 151.643 9.47895C152.435 9.47895 153.138 9.60984 153.751 9.87162C154.364 10.1334 154.878 10.5054 155.291 10.9876C155.711 11.4699 156.028 12.0485 156.242 12.7236C156.455 13.3919 156.562 14.1359 156.562 14.9557V16.1957H147.675V14.2117H153.638V13.9843C153.638 13.571 153.562 13.2024 153.41 12.8786C153.266 12.548 153.045 12.2862 152.749 12.0933C152.453 11.9004 152.074 11.804 151.612 11.804C151.22 11.804 150.882 11.8901 150.6 12.0623C150.317 12.2345 150.086 12.4756 149.907 12.7856C149.735 13.0957 149.604 13.4608 149.515 13.881C149.432 14.2943 149.391 14.749 149.391 15.245V15.6583C149.391 16.1061 149.453 16.5195 149.577 16.8984C149.707 17.2772 149.89 17.6045 150.124 17.88C150.365 18.1556 150.655 18.3691 150.992 18.5207C151.337 18.6723 151.726 18.748 152.16 18.748C152.697 18.748 153.197 18.6447 153.658 18.438C154.127 18.2245 154.53 17.9041 154.867 17.477L156.314 19.0477C156.08 19.3853 155.759 19.709 155.353 20.0191C154.953 20.3291 154.471 20.5839 153.906 20.7837C153.341 20.9766 152.697 21.0731 151.974 21.0731ZM160.654 9.68562L162.504 13.0853L164.405 9.68562H167.577L164.415 15.152L167.722 20.8664H164.539L162.524 17.2704L160.509 20.8664H157.327L160.633 15.152L157.471 9.68562H160.654ZM172 11.835V25.1651H169.024V9.68562H171.783L172 11.835ZM179.078 15.152V15.369C179.078 16.1819 178.982 16.9362 178.789 17.632C178.603 18.3278 178.328 18.934 177.962 19.4507C177.597 19.9605 177.143 20.3601 176.598 20.6494C176.061 20.9318 175.441 21.0731 174.738 21.0731C174.056 21.0731 173.464 20.9353 172.961 20.6597C172.458 20.3842 172.035 19.9984 171.69 19.5024C171.353 18.9995 171.08 18.4174 170.874 17.756C170.667 17.0947 170.509 16.3851 170.398 15.6273V15.059C170.509 14.2461 170.667 13.5021 170.874 12.827C171.08 12.145 171.353 11.556 171.69 11.06C172.035 10.5571 172.455 10.1678 172.951 9.89229C173.454 9.61673 174.043 9.47895 174.718 9.47895C175.427 9.47895 176.051 9.61328 176.588 9.88195C177.132 10.1506 177.587 10.5364 177.952 11.0393C178.324 11.5422 178.603 12.1415 178.789 12.8373C178.982 13.5331 179.078 14.3047 179.078 15.152ZM176.092 15.369V15.152C176.092 14.6767 176.051 14.2392 175.968 13.8397C175.892 13.4332 175.768 13.0784 175.596 12.7753C175.431 12.4722 175.21 12.238 174.935 12.0726C174.666 11.9004 174.339 11.8143 173.953 11.8143C173.547 11.8143 173.199 11.8797 172.909 12.0106C172.627 12.1415 172.396 12.331 172.217 12.579C172.038 12.827 171.904 13.1232 171.814 13.4677C171.725 13.8121 171.669 14.2013 171.649 14.6353V16.0717C171.683 16.5815 171.78 17.0396 171.938 17.446C172.097 17.8456 172.341 18.1625 172.672 18.3967C173.002 18.6309 173.436 18.748 173.974 18.748C174.366 18.748 174.697 18.6619 174.966 18.4897C175.234 18.3106 175.451 18.066 175.617 17.756C175.789 17.446 175.91 17.0878 175.978 16.6814C176.054 16.2749 176.092 15.8375 176.092 15.369ZM184.07 4.99424V20.8664H181.083V4.99424H184.07ZM186.054 15.3897V15.1727C186.054 14.3529 186.171 13.5985 186.405 12.9096C186.639 12.2139 186.98 11.6111 187.428 11.1013C187.876 10.5915 188.427 10.1954 189.081 9.91295C189.736 9.62362 190.487 9.47895 191.334 9.47895C192.181 9.47895 192.936 9.62362 193.597 9.91295C194.258 10.1954 194.813 10.5915 195.261 11.1013C195.715 11.6111 196.06 12.2139 196.294 12.9096C196.528 13.5985 196.645 14.3529 196.645 15.1727V15.3897C196.645 16.2026 196.528 16.9569 196.294 17.6527C196.06 18.3416 195.715 18.9444 195.261 19.461C194.813 19.9708 194.262 20.3669 193.607 20.6494C192.953 20.9318 192.202 21.0731 191.355 21.0731C190.507 21.0731 189.753 20.9318 189.092 20.6494C188.437 20.3669 187.883 19.9708 187.428 19.461C186.98 18.9444 186.639 18.3416 186.405 17.6527C186.171 16.9569 186.054 16.2026 186.054 15.3897ZM189.03 15.1727V15.3897C189.03 15.8581 189.071 16.2956 189.154 16.702C189.236 17.1085 189.367 17.4667 189.546 17.7767C189.732 18.0798 189.973 18.3175 190.27 18.4897C190.566 18.6619 190.927 18.748 191.355 18.748C191.768 18.748 192.123 18.6619 192.419 18.4897C192.715 18.3175 192.953 18.0798 193.132 17.7767C193.311 17.4667 193.442 17.1085 193.525 16.702C193.614 16.2956 193.659 15.8581 193.659 15.3897V15.1727C193.659 14.718 193.614 14.2909 193.525 13.8913C193.442 13.4849 193.308 13.1267 193.122 12.8166C192.943 12.4998 192.705 12.2518 192.409 12.0726C192.112 11.8935 191.754 11.804 191.334 11.804C190.914 11.804 190.555 11.8935 190.259 12.0726C189.97 12.2518 189.732 12.4998 189.546 12.8166C189.367 13.1267 189.236 13.4849 189.154 13.8913C189.071 14.2909 189.03 14.718 189.03 15.1727ZM201.45 12.1243V20.8664H198.474V9.68562H201.275L201.45 12.1243ZM204.819 9.61328L204.767 12.3723C204.623 12.3516 204.447 12.3344 204.24 12.3206C204.041 12.3 203.858 12.2896 203.693 12.2896C203.272 12.2896 202.907 12.3448 202.597 12.455C202.294 12.5583 202.039 12.7133 201.833 12.92C201.633 13.1267 201.481 13.3781 201.378 13.6743C201.282 13.9705 201.226 14.3081 201.213 14.687L200.613 14.501C200.613 13.7777 200.686 13.1129 200.83 12.5066C200.975 11.8935 201.185 11.3596 201.461 10.905C201.743 10.4503 202.088 10.099 202.494 9.85095C202.9 9.60295 203.365 9.47895 203.889 9.47895C204.054 9.47895 204.223 9.49273 204.395 9.52028C204.568 9.54095 204.709 9.57195 204.819 9.61328ZM211.164 21.0731C210.296 21.0731 209.517 20.9353 208.828 20.6597C208.14 20.3773 207.554 19.9881 207.072 19.492C206.596 18.996 206.231 18.4208 205.976 17.7664C205.722 17.105 205.594 16.4023 205.594 15.6583V15.245C205.594 14.3977 205.715 13.6227 205.956 12.92C206.197 12.2173 206.541 11.6076 206.989 11.091C207.444 10.5743 207.995 10.1782 208.642 9.90262C209.29 9.62017 210.02 9.47895 210.833 9.47895C211.625 9.47895 212.328 9.60984 212.941 9.87162C213.554 10.1334 214.067 10.5054 214.481 10.9876C214.901 11.4699 215.218 12.0485 215.432 12.7236C215.645 13.3919 215.752 14.1359 215.752 14.9557V16.1957H206.865V14.2117H212.827V13.9843C212.827 13.571 212.752 13.2024 212.6 12.8786C212.455 12.548 212.235 12.2862 211.939 12.0933C211.643 11.9004 211.264 11.804 210.802 11.804C210.409 11.804 210.072 11.8901 209.789 12.0623C209.507 12.2345 209.276 12.4756 209.097 12.7856C208.925 13.0957 208.794 13.4608 208.704 13.881C208.622 14.2943 208.58 14.749 208.58 15.245V15.6583C208.58 16.1061 208.642 16.5195 208.766 16.8984C208.897 17.2772 209.08 17.6045 209.314 17.88C209.555 18.1556 209.845 18.3691 210.182 18.5207C210.527 18.6723 210.916 18.748 211.35 18.748C211.887 18.748 212.387 18.6447 212.848 18.438C213.317 18.2245 213.72 17.9041 214.057 17.477L215.504 19.0477C215.27 19.3853 214.949 19.709 214.543 20.0191C214.143 20.3291 213.661 20.5839 213.096 20.7837C212.531 20.9766 211.887 21.0731 211.164 21.0731ZM220.423 12.1243V20.8664H217.447V9.68562H220.247L220.423 12.1243ZM223.791 9.61328L223.74 12.3723C223.595 12.3516 223.419 12.3344 223.213 12.3206C223.013 12.3 222.83 12.2896 222.665 12.2896C222.245 12.2896 221.88 12.3448 221.57 12.455C221.266 12.5583 221.012 12.7133 220.805 12.92C220.605 13.1267 220.454 13.3781 220.35 13.6743C220.254 13.9705 220.199 14.3081 220.185 14.687L219.586 14.501C219.586 13.7777 219.658 13.1129 219.803 12.5066C219.947 11.8935 220.157 11.3596 220.433 10.905C220.715 10.4503 221.06 10.099 221.466 9.85095C221.873 9.60295 222.338 9.47895 222.861 9.47895C223.027 9.47895 223.195 9.49273 223.368 9.52028C223.54 9.54095 223.681 9.57195 223.791 9.61328Z" fill="white"/>
<path d="M237.564 16.7824V13.5187C237.564 13.2687 237.514 13.0519 237.412 12.8683C237.314 12.6808 237.166 12.5363 236.967 12.4348C236.768 12.3332 236.521 12.2824 236.229 12.2824C235.955 12.2824 235.715 12.3293 235.508 12.423C235.305 12.5168 235.145 12.6398 235.027 12.7922C234.914 12.9445 234.857 13.1086 234.857 13.2844H233.773C233.773 13.0578 233.832 12.8332 233.949 12.6105C234.066 12.3879 234.234 12.1867 234.453 12.007C234.676 11.8234 234.941 11.6789 235.25 11.5734C235.562 11.4641 235.91 11.4094 236.293 11.4094C236.754 11.4094 237.16 11.4875 237.512 11.6437C237.867 11.8 238.145 12.0363 238.344 12.3527C238.547 12.6652 238.648 13.0578 238.648 13.5305V16.4836C238.648 16.6945 238.666 16.9191 238.701 17.1574C238.74 17.3957 238.797 17.6008 238.871 17.7726V17.8664H237.74C237.686 17.7414 237.643 17.5754 237.611 17.3683C237.58 17.1574 237.564 16.9621 237.564 16.7824ZM237.752 14.0226L237.764 14.7844H236.668C236.359 14.7844 236.084 14.8098 235.842 14.8605C235.6 14.9074 235.396 14.9797 235.232 15.0773C235.068 15.175 234.943 15.298 234.857 15.4465C234.771 15.591 234.729 15.7609 234.729 15.9562C234.729 16.1555 234.773 16.3371 234.863 16.5012C234.953 16.6652 235.088 16.7961 235.268 16.8937C235.451 16.9875 235.676 17.0344 235.941 17.0344C236.273 17.0344 236.566 16.9641 236.82 16.8234C237.074 16.6828 237.275 16.5109 237.424 16.3078C237.576 16.1047 237.658 15.9074 237.67 15.716L238.133 16.2375C238.105 16.4016 238.031 16.5832 237.91 16.7824C237.789 16.9816 237.627 17.173 237.424 17.3566C237.225 17.5363 236.986 17.6867 236.709 17.8078C236.436 17.925 236.127 17.9836 235.783 17.9836C235.354 17.9836 234.977 17.8996 234.652 17.7316C234.332 17.5637 234.082 17.3391 233.902 17.0578C233.727 16.7726 233.639 16.4543 233.639 16.1027C233.639 15.7629 233.705 15.4641 233.838 15.2062C233.971 14.9445 234.162 14.7277 234.412 14.5558C234.662 14.3801 234.963 14.2473 235.314 14.1574C235.666 14.0676 236.059 14.0226 236.492 14.0226H237.752ZM244.35 16.6359V8.86639H245.439V17.8664H244.443L244.35 16.6359ZM240.084 14.7668V14.6437C240.084 14.1594 240.143 13.7199 240.26 13.3254C240.381 12.9269 240.551 12.5851 240.77 12.3C240.992 12.0148 241.256 11.7961 241.561 11.6437C241.869 11.4875 242.213 11.4094 242.592 11.4094C242.99 11.4094 243.338 11.4797 243.635 11.6203C243.936 11.757 244.189 11.9582 244.396 12.2238C244.607 12.4855 244.773 12.8019 244.895 13.173C245.016 13.5441 245.1 13.9641 245.146 14.4328V14.9719C245.104 15.4367 245.02 15.8547 244.895 16.2258C244.773 16.5969 244.607 16.9133 244.396 17.175C244.189 17.4367 243.936 17.6379 243.635 17.7785C243.334 17.9152 242.982 17.9836 242.58 17.9836C242.209 17.9836 241.869 17.9035 241.561 17.7433C241.256 17.5832 240.992 17.3586 240.77 17.0695C240.551 16.7805 240.381 16.4406 240.26 16.05C240.143 15.6555 240.084 15.2277 240.084 14.7668ZM241.174 14.6437V14.7668C241.174 15.0832 241.205 15.3801 241.268 15.6574C241.334 15.9348 241.436 16.1789 241.572 16.3898C241.709 16.6008 241.883 16.7668 242.094 16.8879C242.305 17.0051 242.557 17.0637 242.85 17.0637C243.209 17.0637 243.504 16.9875 243.734 16.8351C243.969 16.6828 244.156 16.4816 244.297 16.2316C244.438 15.9816 244.547 15.7101 244.625 15.4172V14.0051C244.578 13.7902 244.51 13.5832 244.42 13.384C244.334 13.1808 244.221 13.0012 244.08 12.8449C243.943 12.6848 243.773 12.5578 243.57 12.4641C243.371 12.3703 243.135 12.3234 242.861 12.3234C242.564 12.3234 242.309 12.3859 242.094 12.5109C241.883 12.632 241.709 12.8 241.572 13.0148C241.436 13.2258 241.334 13.4719 241.268 13.7531C241.205 14.0305 241.174 14.3273 241.174 14.6437ZM248.205 12.7863V17.8664H247.115V11.5266H248.146L248.205 12.7863ZM247.982 14.4562L247.479 14.4387C247.482 14.0051 247.539 13.6047 247.648 13.2375C247.758 12.8664 247.92 12.5441 248.135 12.2707C248.35 11.9973 248.617 11.7863 248.938 11.6379C249.258 11.4855 249.629 11.4094 250.051 11.4094C250.348 11.4094 250.621 11.4523 250.871 11.5383C251.121 11.6203 251.338 11.7512 251.521 11.9308C251.705 12.1105 251.848 12.341 251.949 12.6223C252.051 12.9035 252.102 13.2433 252.102 13.6418V17.8664H251.018V13.6945C251.018 13.3625 250.961 13.0969 250.848 12.8976C250.738 12.6984 250.582 12.5539 250.379 12.4641C250.176 12.3703 249.938 12.3234 249.664 12.3234C249.344 12.3234 249.076 12.3801 248.861 12.4933C248.646 12.6066 248.475 12.7629 248.346 12.9621C248.217 13.1613 248.123 13.3898 248.064 13.6476C248.01 13.9016 247.982 14.1711 247.982 14.4562ZM252.09 13.8586L251.363 14.0812C251.367 13.7336 251.424 13.3996 251.533 13.0793C251.646 12.759 251.809 12.4738 252.02 12.2238C252.234 11.9738 252.498 11.7766 252.811 11.632C253.123 11.4836 253.48 11.4094 253.883 11.4094C254.223 11.4094 254.523 11.4543 254.785 11.5441C255.051 11.634 255.273 11.7726 255.453 11.9601C255.637 12.1437 255.775 12.3801 255.869 12.6691C255.963 12.9582 256.01 13.3019 256.01 13.7004V17.8664H254.92V13.6887C254.92 13.3332 254.863 13.0578 254.75 12.8625C254.641 12.6633 254.484 12.5246 254.281 12.4465C254.082 12.3644 253.844 12.3234 253.566 12.3234C253.328 12.3234 253.117 12.3644 252.934 12.4465C252.75 12.5285 252.596 12.6418 252.471 12.7863C252.346 12.9269 252.25 13.0891 252.184 13.2726C252.121 13.4562 252.09 13.6516 252.09 13.8586ZM258.828 11.5266V17.8664H257.738V11.5266H258.828ZM257.656 9.84491C257.656 9.66913 257.709 9.52069 257.814 9.3996C257.924 9.2785 258.084 9.21796 258.295 9.21796C258.502 9.21796 258.66 9.2785 258.77 9.3996C258.883 9.52069 258.939 9.66913 258.939 9.84491C258.939 10.0129 258.883 10.1574 258.77 10.2785C258.66 10.3957 258.502 10.4543 258.295 10.4543C258.084 10.4543 257.924 10.3957 257.814 10.2785C257.709 10.1574 257.656 10.0129 257.656 9.84491ZM261.652 12.8801V17.8664H260.568V11.5266H261.594L261.652 12.8801ZM261.395 14.4562L260.943 14.4387C260.947 14.0051 261.012 13.6047 261.137 13.2375C261.262 12.8664 261.438 12.5441 261.664 12.2707C261.891 11.9973 262.16 11.7863 262.473 11.6379C262.789 11.4855 263.139 11.4094 263.521 11.4094C263.834 11.4094 264.115 11.4523 264.365 11.5383C264.615 11.6203 264.828 11.7531 265.004 11.9367C265.184 12.1203 265.32 12.3586 265.414 12.6516C265.508 12.9406 265.555 13.2941 265.555 13.7121V17.8664H264.465V13.7004C264.465 13.3683 264.416 13.1027 264.318 12.9035C264.221 12.7004 264.078 12.5539 263.891 12.4641C263.703 12.3703 263.473 12.3234 263.199 12.3234C262.93 12.3234 262.684 12.3801 262.461 12.4933C262.242 12.6066 262.053 12.7629 261.893 12.9621C261.736 13.1613 261.613 13.3898 261.523 13.6476C261.438 13.9016 261.395 14.1711 261.395 14.4562Z" fill="#82F3FF"/>
</svg>
